<svg aria-hidden="true" style="position: absolute; width: 0; height: 0; overflow: hidden;" version="1.1" xmlns="http://www.w3.org/2000/svg" xmlns:xlink="http://www.w3.org/1999/xlink">
<defs>

<symbol id="icon-s2" viewBox="0 0 32 32">
<path fill="#27374d" style="fill: var(--color1, #27374d)" d="M15.165 18.544c0.558 0 1.073-0.28 1.376-0.748s0.348-1.052 0.119-1.561l-6.7-14.912c-0.274-0.611-0.861-0.992-1.531-0.994-0.002 0-0.004 0-0.007 0-0.667 0-1.254 0.376-1.532 0.985l-6.74 14.91c-0.233 0.509-0.192 1.095 0.111 1.566s0.818 0.753 1.379 0.753h4.736v2.892h-0.485c-0.218 0-0.396 0.177-0.396 0.395v7.209c0 1.615 1.314 2.928 2.928 2.928s2.929-1.314 2.929-2.928v-7.209c0-0.218-0.177-0.395-0.396-0.395h-0.521l-0.003-2.892h4.734zM1.64 17.753c-0.294 0-0.554-0.142-0.714-0.39s-0.18-0.542-0.057-0.811l6.74-14.91c0.15-0.327 0.453-0.522 0.812-0.522 0.001 0 0.003 0 0.004 0 0.361 0.001 0.664 0.199 0.812 0.527l6.7 14.912c0.12 0.267 0.098 0.561-0.062 0.807s-0.419 0.387-0.712 0.387h-4.734l-0.003-2.763c0-1.117-0.909-2.025-2.026-2.025s-2.026 0.909-2.026 2.025v2.763h-4.736zM10.56 29.040c0 1.179-0.959 2.137-2.138 2.137s-2.137-0.959-2.137-2.137v-6.814h4.275v6.814zM7.166 21.436v-6.446c0-0.681 0.554-1.234 1.235-1.234s1.235 0.554 1.235 1.235l0.006 6.446h-2.477z"></path>
<path fill="#27374d" style="fill: var(--color2, #27374d)" d="M24.572 31.693c1.179 0 2.138-0.959 2.138-2.137v-9.614c0-0.858 0.698-1.556 1.556-1.556h1.646c0.811 0 1.472-0.66 1.472-1.472v-16.117c0-0.216-0.175-0.391-0.391-0.391h-12.84c-0.216 0-0.391 0.175-0.391 0.391v16.117c0 0.811 0.66 1.472 1.471 1.472h1.646c0.858 0 1.556 0.698 1.556 1.556v9.614c0 1.179 0.959 2.137 2.137 2.137zM20.822 1.188v5.715c0 0.216 0.175 0.391 0.391 0.391s0.391-0.175 0.391-0.391v-5.715h2.601v4.838c0 0.216 0.175 0.391 0.391 0.391s0.391-0.175 0.391-0.391v-4.838h2.602v4.067c0 0.216 0.175 0.391 0.391 0.391s0.391-0.175 0.391-0.391v-4.067h2.229v11.988h-12.058v-11.988h2.279zM20.878 17.603h-1.646c-0.38 0-0.689-0.309-0.689-0.689v-2.956h12.058v2.956c0 0.38-0.309 0.689-0.689 0.689h-1.646c-1.289 0-2.338 1.049-2.338 2.339v9.614c0 0.747-0.608 1.355-1.355 1.355s-1.355-0.608-1.355-1.355v-9.614c0-1.289-1.049-2.339-2.339-2.339z"></path>
</symbol>

<symbol id="icon-s2-2" viewBox="0 0 14 32">
<path d="M7.127 31.726c1.185 0 2.149-0.964 2.149-2.149v-9.665c0-0.863 0.702-1.565 1.564-1.565h1.654c0.816 0 1.479-0.664 1.479-1.479v-16.201c0-0.217-0.176-0.393-0.393-0.393h-12.907c-0.217 0-0.393 0.176-0.393 0.393v16.201c0 0.816 0.663 1.479 1.479 1.479h1.655c0.863 0 1.565 0.702 1.565 1.565v9.665c0 1.185 0.964 2.149 2.149 2.149zM3.357 1.061v5.745c0 0.217 0.176 0.393 0.393 0.393s0.393-0.176 0.393-0.393v-5.745h2.615v4.863c0 0.217 0.176 0.393 0.393 0.393s0.393-0.176 0.393-0.393v-4.863h2.615v4.088c0 0.217 0.176 0.393 0.393 0.393s0.393-0.176 0.393-0.393v-4.088h2.241v12.051h-12.121v-12.051h2.291zM3.414 17.562h-1.655c-0.382 0-0.693-0.311-0.693-0.693v-2.971h12.121v2.971c0 0.382-0.311 0.693-0.693 0.693h-1.654c-1.296 0-2.351 1.055-2.351 2.351v9.665c0 0.751-0.611 1.362-1.363 1.362s-1.362-0.611-1.362-1.362v-9.665c0-1.296-1.055-2.351-2.351-2.351z"></path>
</symbol>
<symbol id="icon-s2-1" viewBox="0 0 17 32">
<path d="M15.427 18.381c0.555 0 1.066-0.278 1.368-0.744s0.346-1.045 0.118-1.551l-6.661-14.823c-0.273-0.607-0.856-0.986-1.521-0.988-0.002 0-0.004 0-0.007 0-0.663 0-1.246 0.374-1.523 0.979l-6.7 14.822c-0.232 0.506-0.191 1.088 0.11 1.557s0.814 0.749 1.371 0.749h4.708v2.874h-0.483c-0.217 0-0.393 0.176-0.393 0.393v7.166c0 1.605 1.306 2.911 2.911 2.911s2.911-1.306 2.911-2.911v-7.166c0-0.217-0.176-0.393-0.393-0.393h-0.518l-0.003-2.874h4.706zM1.982 17.595c-0.293 0-0.551-0.141-0.709-0.387s-0.179-0.539-0.056-0.807l6.7-14.822c0.149-0.325 0.451-0.518 0.808-0.518 0.001 0 0.002 0 0.004 0 0.359 0.001 0.66 0.197 0.807 0.524l6.661 14.823c0.119 0.265 0.097 0.558-0.061 0.802s-0.416 0.385-0.708 0.385h-4.706l-0.003-2.747c0-1.11-0.904-2.013-2.014-2.013s-2.014 0.903-2.014 2.013v2.747h-4.708zM10.849 28.815c0 1.172-0.953 2.125-2.125 2.125s-2.125-0.953-2.125-2.125v-6.773h4.25v6.773zM7.475 21.255v-6.408c0-0.677 0.551-1.227 1.228-1.227s1.228 0.55 1.228 1.227l0.006 6.407h-2.462z"></path>
</symbol>
<symbol id="icon-arrow1" viewBox="0 0 140 32">
<path style="fill" d="M139.068 17.856c0.757-0.757 0.757-1.985 0-2.743l-12.342-12.342c-0.757-0.757-1.985-0.757-2.743 0s-0.757 1.985 0 2.743l10.971 10.971-10.971 10.971c-0.757 0.757-0.757 1.985 0 2.743s1.985 0.757 2.743 0l12.342-12.342zM1.939 18.424h135.758v-3.879h-135.758v3.879z"></path>
</symbol>
<symbol id="icon-arrow2" viewBox="0 0 13 32">
<path stroke-linejoin="miter" stroke-linecap="butt" stroke-miterlimit="4" stroke-width="0.9846" d="M12.8 31.508l-11.815-15.559 11.815-15.456"></path>
</symbol>
<symbol id="icon-circles" viewBox="0 0 328 32">
<path fill="#787878" style="fill: var(--color2, #787878)" d="M179.6 16c0 8.837-7.163 16-16 16s-16-7.163-16-16c0-8.837 7.163-16 16-16s16 7.163 16 16z"></path>
<path fill="#9f9f9f" style="fill: var(--color3, #9f9f9f)" d="M130.4 16c0 8.837-7.163 16-16 16s-16-7.163-16-16c0-8.837 7.163-16 16-16s16 7.163 16 16z"></path>
<path fill="#b4b4b4" style="fill: var(--color4, #b4b4b4)" d="M81.2 16c0 8.837-7.163 16-16 16s-16-7.163-16-16c0-8.837 7.163-16 16-16s16 7.163 16 16z"></path>
<path fill="#cdcdcd" style="fill: var(--color5, #cdcdcd)" d="M32 16c0 8.837-7.163 16-16 16s-16-7.163-16-16c0-8.837 7.163-16 16-16s16 7.163 16 16z"></path>
<path fill="#9f9f9f" style="fill: var(--color3, #9f9f9f)" d="M228.8 16c0 8.837-7.163 16-16 16s-16-7.163-16-16c0-8.837 7.163-16 16-16s16 7.163 16 16z"></path>
<path fill="#b4b4b4" style="fill: var(--color4, #b4b4b4)" d="M278 16c0 8.837-7.163 16-16 16s-16-7.163-16-16c0-8.837 7.163-16 16-16s16 7.163 16 16z"></path>
<path fill="#cdcdcd" style="fill: var(--color5, #cdcdcd)" d="M327.2 16c0 8.837-7.163 16-16 16s-16-7.163-16-16c0-8.837 7.163-16 16-16s16 7.163 16 16z"></path>
</symbol>
<symbol id="icon-hags" viewBox="0 0 40 32">
<path fill="#fff" style="fill: var(--color1, #fff)" d="M1.722 31.526c-0.804 0-1.367-0.614-1.367-1.302 0-0.49 0.284-1.015 0.972-1.383 3.497-1.863 7.545-8.314 7.545-12.292-5.898 0.181-8.46-5.080-8.46-8.377 0-3.947 3.399-8.123 8.425-8.123 6.338 0 9.445 5.011 9.445 10.441 0 11.767-13.364 21.037-16.56 21.037zM22.907 31.526c-0.802 0-1.367-0.614-1.367-1.302 0-0.49 0.284-1.015 0.972-1.383 3.497-1.863 7.545-8.314 7.545-12.292-5.896 0.181-8.46-5.080-8.46-8.377 0-3.947 3.401-8.123 8.425-8.123 6.338 0 9.445 5.011 9.445 10.441 0 11.767-13.362 21.037-16.56 21.037z"></path>
</symbol>
<symbol id="icon-logo" viewBox="0 0 38 32">
<path fill="#000" style="fill: var(--color6, #000)" d="M6.178 24.451v-10.812h0.667v10.145h10.386v0.667h-11.053z"></path>
<path fill="#000" style="fill: var(--color6, #000)" d="M17.246 12.020h-10.992l10.992-6.939v6.939z"></path>
<path fill="#000" style="fill: var(--color6, #000)" d="M10.009 8.35v1.298l-1.512 0.958v-2.256h1.512z"></path>
<path fill="#000" style="fill: var(--color6, #000)" d="M8.426 22.144v-8.505h8.82v8.505h-8.82z"></path>
<path fill="#fff" style="fill: var(--color1, #fff)" d="M16.986 15.4h-1.514v1.518h1.514v-1.518z"></path>
<path fill="#fff" style="fill: var(--color1, #fff)" d="M16.986 17.162h-1.514v1.522h1.514v-1.522z"></path>
<path fill="#000" style="fill: var(--color6, #000)" d="M18.16 5.628l14.868 7.654 0.121-0.235-14.989-7.717v0.297z"></path>
<path fill="#000" style="fill: var(--color6, #000)" d="M18.16 7.331l14.868 7.654 0.121-0.235-14.989-7.717v0.297z"></path>
</symbol>
<symbol id="icon-logo-w" viewBox="0 0 38 32">
<path fill="#fff" style="fill: var(--color1, #fff)" d="M6.191 24.451v-10.812h0.668v10.145h10.409v0.667h-11.077z"></path>
<path fill="#fff" style="fill: var(--color1, #fff)" d="M17.283 12.020h-11.016l11.016-6.939v6.939z"></path>
<path fill="#fff" style="fill: var(--color1, #fff)" d="M10.030 8.35v1.298l-1.515 0.958v-2.256h1.515z"></path>
<path fill="#fff" style="fill: var(--color1, #fff)" d="M8.444 22.144v-8.505h8.839v8.505h-8.839z"></path>
<path fill="#27374d" style="fill: var(--color7, #27374d)" d="M17.022 15.4h-1.517v1.518h1.517v-1.518z"></path>
<path fill="#27374d" style="fill: var(--color7, #27374d)" d="M17.022 17.162h-1.517v1.522h1.517v-1.522z"></path>
<path fill="#fff" style="fill: var(--color1, #fff)" d="M18.199 5.628l14.9 7.654 0.121-0.235-15.021-7.717v0.297z"></path>
<path fill="#fff" style="fill: var(--color1, #fff)" d="M18.199 7.331l14.9 7.654 0.121-0.235-15.021-7.717v0.297z"></path>
</symbol>
<symbol id="icon-s1" viewBox="0 0 34 32">
<path fill="#334256" style="fill: var(--color8, #334256)" d="M33.484 1.755c-0-0.044-0.009-0.088-0.026-0.13-0.035-0.084-0.102-0.151-0.186-0.186s-0.179-0.035-0.263 0c-0.042 0.018-0.080 0.043-0.112 0.074-1.511 1.51-3.968 1.509-5.478 0-0.032-0.032-0.070-0.057-0.112-0.074-0.084-0.035-0.179-0.035-0.263 0-0.042 0.018-0.080 0.043-0.112 0.074-1.511 1.509-3.968 1.51-5.478 0-0.032-0.032-0.070-0.057-0.112-0.074-0.038-0.015-0.078-0.022-0.117-0.024-0.005 0-0.009-0.003-0.014-0.003-0.011 0-0.021 0.006-0.032 0.007-0.034 0.003-0.067 0.007-0.098 0.020-0.085 0.035-0.152 0.102-0.187 0.187-0.010 0.026-0.012 0.053-0.016 0.081-0.003 0.017-0.010 0.032-0.010 0.050v3.070h-4.753l-3.122-4.533c-0.002-0.002-0.004-0.003-0.006-0.006-0.025-0.034-0.055-0.064-0.091-0.087-0.033-0.021-0.069-0.034-0.107-0.043-0.006-0.001-0.011-0.006-0.017-0.007s-0.010 0.001-0.015 0c-0.039-0.006-0.079-0.007-0.119 0.002s-0.077 0.026-0.112 0.047c-0.003 0.002-0.008 0.002-0.011 0.005s-0.004 0.005-0.007 0.007c-0.034 0.024-0.064 0.054-0.087 0.090-0.025 0.038-0.042 0.081-0.050 0.125-0.187 1.018-0.76 1.901-1.612 2.488s-1.882 0.807-2.899 0.619c-0.044-0.008-0.089-0.007-0.133 0.002-0.089 0.019-0.168 0.073-0.218 0.15-0.024 0.038-0.042 0.080-0.050 0.125s-0.007 0.090 0.002 0.134c0.009 0.042 0.026 0.080 0.049 0.116 0.002 0.002 0.002 0.005 0.003 0.008l0.523 0.76h-7.576c-0.19 0-0.344 0.154-0.344 0.344s0.154 0.344 0.344 0.344h8.049l1.008 1.464h-9.057c-0.19 0-0.344 0.154-0.344 0.344s0.154 0.344 0.344 0.344h9.531l1.566 2.273c0 0.001 0.001 0.001 0.002 0.001 0.029 0.041 0.068 0.073 0.112 0.099 0.015 0.009 0.032 0.013 0.048 0.019 0.020 0.008 0.037 0.020 0.059 0.024 0.278 0.051 0.555 0.076 0.829 0.076 0.824 0 1.612-0.226 2.296-0.625v2.423h-14.442c-0.19 0-0.344 0.154-0.344 0.344s0.154 0.344 0.344 0.344h14.442v1.463h-14.442c-0.19 0-0.344 0.154-0.344 0.344s0.154 0.344 0.344 0.344h14.442v4.291h-14.442c-0.19 0-0.344 0.154-0.344 0.344s0.154 0.344 0.344 0.344h14.442v1.464h-14.442c-0.19 0-0.344 0.154-0.344 0.344s0.154 0.344 0.344 0.344h14.442v4.29h-14.442c-0.19 0-0.344 0.154-0.344 0.344s0.154 0.344 0.344 0.344h14.442v1.464h-14.442c-0.19 0-0.344 0.154-0.344 0.344s0.154 0.344 0.344 0.344h14.442v1.221c0 0.045 0.009 0.089 0.026 0.131s0.043 0.080 0.075 0.112c0.889 0.889 2.057 1.333 3.225 1.333 1.066 0 2.129-0.375 2.982-1.114 0.854 0.74 1.916 1.114 2.982 1.114s2.129-0.374 2.983-1.114c0.853 0.739 1.916 1.114 2.982 1.114 1.168 0 2.336-0.444 3.225-1.333 0.032-0.032 0.057-0.070 0.075-0.112s0.026-0.087 0.026-0.131v-28.52c0-0.001-0-0.001-0-0.002zM16.666 7.666h4.2v1.068c-1.428 1.331-3.622 1.384-5.108 0.152 0.365-0.349 0.673-0.76 0.908-1.221zM26.831 15.864c-1.484 1.383-3.794 1.384-5.277 0v-6.245c0.787 0.56 1.712 0.844 2.638 0.844s1.851-0.284 2.639-0.844v6.245zM21.554 16.75c0.787 0.56 1.712 0.844 2.638 0.844s1.851-0.284 2.639-0.844v6.245c-1.484 1.383-3.794 1.383-5.277-0v-6.244zM32.796 22.994c-1.484 1.383-3.793 1.383-5.277 0v-6.245c0.787 0.56 1.712 0.844 2.638 0.844s1.851-0.284 2.638-0.844v6.245zM32.796 15.864c-1.484 1.383-3.793 1.384-5.277 0v-6.245c0.787 0.559 1.712 0.844 2.638 0.844s1.851-0.284 2.638-0.844v6.245zM18.228 10.463c0.926 0 1.851-0.284 2.638-0.844v6.245c-0.063 0.058-0.124 0.118-0.189 0.171-0.024 0.020-0.051 0.037-0.076 0.056-0.078 0.061-0.157 0.122-0.239 0.176-0.009 0.006-0.019 0.011-0.028 0.017-1.276 0.827-2.936 0.828-4.213 0-0.009-0.006-0.019-0.011-0.028-0.016-0.083-0.054-0.162-0.115-0.241-0.177-0.024-0.019-0.050-0.035-0.074-0.055-0.065-0.053-0.127-0.113-0.19-0.171v-6.245c0.787 0.559 1.711 0.843 2.638 0.843zM15.59 21.582v-4.831c0.042 0.030 0.082 0.062 0.124 0.090 0.015 0.010 0.032 0.019 0.047 0.029 0.729 0.471 1.578 0.726 2.466 0.726 0.898 0 1.755-0.259 2.489-0.74 0.007-0.005 0.015-0.009 0.023-0.014 0.043-0.029 0.084-0.061 0.126-0.092v6.243c-1.42 1.324-3.598 1.385-5.083 0.174-0.067-0.054-0.129-0.115-0.193-0.174v-1.412h0.001zM30.158 3.333c0.927 0 1.851-0.284 2.638-0.844v6.245c-1.484 1.383-3.793 1.383-5.277 0v-6.245c0.787 0.56 1.712 0.844 2.638 0.844zM26.831 2.489v6.245c-1.484 1.383-3.794 1.384-5.277 0v-6.245c0.787 0.56 1.712 0.844 2.638 0.844s1.851-0.284 2.639-0.844zM20.866 5.514v1.464h-3.919c0.057-0.18 0.108-0.364 0.143-0.555 0.008-0.044 0.007-0.090-0.002-0.134-0.009-0.042-0.026-0.080-0.049-0.115-0.001-0.002-0.002-0.006-0.003-0.008l-0.449-0.651h4.279zM12.037 9.423l-3.54-5.14c0.024 0 0.049 0.003 0.073 0.003 0.915 0 1.808-0.276 2.578-0.806 0.791-0.545 1.373-1.308 1.694-2.192l3.541 5.141c-0.437 1.981-2.338 3.291-4.345 2.993zM15.59 30.125v-6.245c0.787 0.559 1.711 0.844 2.638 0.844s1.851-0.285 2.638-0.844v6.245c-1.483 1.383-3.793 1.383-5.277 0zM21.554 30.124v-6.245c0.787 0.56 1.712 0.844 2.638 0.844s1.851-0.285 2.639-0.844v6.245c-1.484 1.382-3.794 1.383-5.277-0zM27.519 30.125v-6.245c0.787 0.559 1.712 0.843 2.638 0.843s1.851-0.284 2.638-0.843v6.245c-1.484 1.383-3.793 1.382-5.277 0z"></path>
</symbol>
<symbol id="icon-s3" viewBox="0 0 43 32">
<path d="M20.737 0.364h-20.356v31.6h42.581v-31.6h-22.225zM1.074 31.22v-30.114h18.97v2h-17.11v26.113h17.11v2h-18.97zM20.044 14.22l-10.222 14.257h-1.368l11.59-16.165v1.907zM20.044 14.626v13.852h-9.93l9.93-13.852zM20.044 11.907l-11.881 16.57h-4.536v-4.335l14.548-20.292h1.869v8.057zM3.628 23.736v-19.887h14.257l-14.257 19.887zM42.269 31.22h-21.532v-30.114h21.532v30.114z"></path>
<path d="M23.298 29.22h17.11v-26.113h-17.803v26.113h0.693zM39.715 14.3l-10.164 14.178h-1.368l11.532-16.085v1.908zM29.841 28.477l9.874-13.771v13.771h-9.874zM37.612 3.849l-14.314 19.966v-19.966h14.314zM23.298 24.221l14.606-20.372h1.812v8.137l-11.824 16.491h-4.593v-4.256z"></path>
</symbol>
<symbol id="icon-s4" viewBox="0 0 39 32">
<path d="M17.138 24.523c-0.245 0-0.443-0.201-0.443-0.448v-5.798c0-0.247 0.199-0.448 0.443-0.448s0.443 0.201 0.443 0.448v5.798c0 0.248-0.199 0.448-0.443 0.448z"></path>
<path d="M21.436 24.523c-0.245 0-0.443-0.201-0.443-0.448v-4.749c0-0.247 0.199-0.448 0.443-0.448s0.443 0.201 0.443 0.448v4.749c0 0.248-0.198 0.448-0.443 0.448z"></path>
<path d="M30.485 27.775h-19.055c-0.245 0-0.443-0.201-0.443-0.448s0.198-0.448 0.443-0.448h19.055c0.245 0 0.443 0.201 0.443 0.448s-0.198 0.448-0.443 0.448zM5.894 23.983c-0.176 0-0.342-0.107-0.412-0.282l-1.121-2.838c-0.040-0.101-0.042-0.213-0.006-0.315l1.309-3.741c0.044-0.127 0.144-0.228 0.27-0.273l7.855-2.805c0.081-0.029 0.168-0.033 0.252-0.013l19.494 4.76c0.178 0.044 0.311 0.194 0.335 0.377l0.566 4.368c0.032 0.246-0.139 0.471-0.382 0.503s-0.465-0.141-0.497-0.386l-0.526-4.062-19.070-4.657-7.532 2.69-1.183 3.379 1.059 2.681c0.090 0.23-0.020 0.49-0.247 0.582-0.052 0.022-0.108 0.032-0.163 0.032z"></path>
<path d="M28.020 24.523h-14.124c-0.168 0-0.323-0.097-0.397-0.249-1.002-2.044-2.928-3.452-5.154-3.768-0.132-0.019-0.248-0.096-0.317-0.211s-0.083-0.255-0.039-0.382l0.196-0.559c0.044-0.127 0.144-0.228 0.27-0.273l5.508-1.967c0.081-0.029 0.168-0.033 0.252-0.013l16.059 3.922c0.167 0.040 0.295 0.175 0.33 0.345s-0.030 0.345-0.168 0.449c-0.849 0.645-1.547 1.495-2.018 2.456-0.075 0.155-0.23 0.251-0.398 0.251zM14.165 23.627h13.585c0.385-0.718 0.883-1.375 1.468-1.939l-15.084-3.683-4.923 1.758c2.108 0.516 3.911 1.916 4.954 3.864z"></path>
<path d="M7.392 31.858c-2.471 0-4.481-2.032-4.481-4.531s2.010-4.531 4.481-4.531 4.481 2.032 4.481 4.531c0 2.498-2.010 4.531-4.481 4.531zM7.392 23.692c-1.983 0-3.595 1.631-3.595 3.635s1.613 3.635 3.595 3.635c1.982 0 3.595-1.631 3.595-3.635s-1.613-3.635-3.595-3.635z"></path>
<path d="M34.523 31.858c-2.471 0-4.481-2.032-4.481-4.531s2.010-4.531 4.481-4.531 4.481 2.032 4.481 4.531c0 2.498-2.010 4.531-4.481 4.531zM34.523 23.692c-1.983 0-3.595 1.631-3.595 3.635s1.613 3.635 3.595 3.635c1.982 0 3.595-1.631 3.595-3.635s-1.613-3.635-3.595-3.635z"></path>
<path d="M34.523 29.151c-0.994 0-1.804-0.818-1.804-1.824s0.809-1.824 1.804-1.824 1.804 0.818 1.804 1.824c0 1.006-0.809 1.824-1.804 1.824zM34.523 26.4c-0.506 0-0.917 0.416-0.917 0.928s0.411 0.928 0.917 0.928c0.506 0 0.917-0.416 0.917-0.928s-0.411-0.928-0.917-0.928z"></path>
<path d="M7.392 29.151c-0.994 0-1.804-0.818-1.804-1.824s0.809-1.824 1.804-1.824c0.994 0 1.804 0.818 1.804 1.824s-0.809 1.824-1.804 1.824zM7.392 26.4c-0.506 0-0.917 0.416-0.917 0.928s0.411 0.928 0.917 0.928c0.506 0 0.917-0.416 0.917-0.928s-0.411-0.928-0.917-0.928z"></path>
<path d="M28.832 18.236c-0.245 0-0.443-0.201-0.443-0.448v-6.066h-11.669v2.999c0 0.247-0.199 0.448-0.443 0.448s-0.443-0.201-0.443-0.448v-3.448c0-0.247 0.199-0.448 0.443-0.448h12.556c0.245 0 0.443 0.201 0.443 0.448v6.514c0 0.248-0.199 0.448-0.443 0.448z"></path>
<path d="M26.683 11.721c-0.245 0-0.443-0.201-0.443-0.448v-2.804h-7.371v2.804c0 0.247-0.199 0.448-0.443 0.448s-0.443-0.201-0.443-0.448v-3.252c0-0.247 0.199-0.448 0.443-0.448h8.257c0.245 0 0.443 0.201 0.443 0.448v3.252c0 0.247-0.199 0.448-0.443 0.448z"></path>
<path d="M8.614 16.5c-0.175 0-0.339-0.105-0.41-0.278l-4.967-12.241h-2.795c-0.245 0-0.443-0.201-0.443-0.448v-3.002c0-0.247 0.199-0.448 0.443-0.448h5.072c0.18 0 0.342 0.11 0.41 0.278l5.892 14.522c0.093 0.229-0.015 0.491-0.242 0.584s-0.486-0.015-0.578-0.245l-5.78-14.243h-4.332v2.106h2.648c0.18 0 0.342 0.11 0.41 0.278l5.079 12.519c0.093 0.229-0.015 0.491-0.242 0.584-0.055 0.022-0.112 0.033-0.168 0.033z"></path>
</symbol>
<symbol id="icon-s5" viewBox="0 0 31 32">
<path d="M28.583 2.345h-25.894c-0.188 0-0.344 0.156-0.344 0.344v25.863c0 0.188 0.156 0.344 0.344 0.344h25.863c0.188 0 0.344-0.156 0.344-0.344v-25.863c0.031-0.188-0.125-0.344-0.313-0.344zM17.169 10.383v-2.252h9.663v2.252h-9.663zM15.824 12.853v-2.127h7.005v2.127h-7.005zM15.824 15.449v-2.252h4.347v2.22h-4.347v0.031zM15.449 3.065v3.409l-3.409-3.409h3.409zM15.824 10.383v-2.252h1.001v2.252h-1.001zM3.065 4.441v-1.376h1.595l10.789 10.789v1.595h-1.376l-2.283-2.283-3.909-3.94-4.753-4.753-0.063-0.031zM15.449 24.299l-3.033 3.033-1.532-1.532 4.566-4.566v3.065zM15.449 20.734l-2.94 2.94-1.407-1.407 2.721-2.721c0 0 0.031 0 0.031-0.031l1.626-1.626v2.846h-0.031zM4.879 25.018l7.068-7.068 1.501 1.501-7.068 7.068-1.501-1.501zM3.065 23.142l4.191-4.191 1.595 1.595-5.785 5.785v-3.19zM3.065 19.514l0.5-0.5 1.564 1.564-2.064 2.064v-3.127zM3.065 15.824h3.19l-3.19 3.19v-3.19zM3.065 12.259l3.19 3.19h-3.19v-3.19zM13.572 15.824l-4.472 4.472-1.595-1.595 2.877-2.877h3.19zM5.379 20.296l-1.564-1.564 2.94-2.94h3.096l-4.472 4.503zM15.449 17.419l-1.751 1.751-1.501-1.47 1.876-1.876h1.376v1.595zM7.631 9.507l5.942 5.942h-3.19l-7.318-7.318v-3.19l4.566 4.566zM3.065 8.663l6.817 6.817h-3.096l-3.628-3.628-0.125-0.031v-3.159h0.031zM10.852 22.548l1.407 1.407-4.284 4.253h-2.815l5.692-5.66zM11.54 3.065l3.878 3.878v3.065l-6.943-6.943h3.065zM7.975 3.065l7.474 7.474v2.815l-8.663-8.694c0 0 0-0.031-0.031-0.031l-1.564-1.564h2.783zM3.065 28.208v-1.376l1.564-1.564 1.501 1.501-1.439 1.439h-1.626zM10.633 26.081l1.532 1.532-0.594 0.594h-3.065l2.127-2.127zM12.071 28.208l3.377-3.377v3.409h-3.377v-0.031zM15.824 7.756v-2.22h7.005v2.22h-7.005zM15.824 5.191v-2.127h4.347v2.127h-4.347zM15.824 24.393v-8.569h2.283v12.415h-2.283v-3.847zM18.451 15.793h2.252v12.447h-2.252v-12.447zM21.078 27.395v-11.602h2.095v12.415h-2.095v-0.813zM23.548 15.793h1.97v12.415h-1.97v-12.415zM20.546 15.449v-2.22h7.662v2.22h-7.662zM23.173 12.853v-2.127h5.035v2.127h-5.035zM28.208 10.383h-1.001v-2.252h1.001v2.252zM23.173 7.756v-2.22h5.035v2.22h-5.035zM28.208 5.191h-7.662v-2.127h7.662v2.127zM25.863 28.208v-12.415h2.345v12.415h-2.345z"></path>
</symbol>

<symbol id="icon-facebook" viewBox="0 0 32 32">
<path d="M19 6h5v-6h-5c-3.86 0-7 3.14-7 7v3h-4v6h4v16h6v-16h5l1-6h-6v-3c0-0.542 0.458-1 1-1z"></path>
</symbol>
<symbol id="icon-instagram" viewBox="0 0 32 32">
<path d="M16 2.881c4.275 0 4.781 0.019 6.462 0.094 1.563 0.069 2.406 0.331 2.969 0.55 0.744 0.288 1.281 0.638 1.837 1.194 0.563 0.563 0.906 1.094 1.2 1.838 0.219 0.563 0.481 1.412 0.55 2.969 0.075 1.688 0.094 2.194 0.094 6.463s-0.019 4.781-0.094 6.463c-0.069 1.563-0.331 2.406-0.55 2.969-0.288 0.744-0.637 1.281-1.194 1.837-0.563 0.563-1.094 0.906-1.837 1.2-0.563 0.219-1.413 0.481-2.969 0.55-1.688 0.075-2.194 0.094-6.463 0.094s-4.781-0.019-6.463-0.094c-1.563-0.069-2.406-0.331-2.969-0.55-0.744-0.288-1.281-0.637-1.838-1.194-0.563-0.563-0.906-1.094-1.2-1.837-0.219-0.563-0.481-1.413-0.55-2.969-0.075-1.688-0.094-2.194-0.094-6.463s0.019-4.781 0.094-6.463c0.069-1.563 0.331-2.406 0.55-2.969 0.288-0.744 0.638-1.281 1.194-1.838 0.563-0.563 1.094-0.906 1.838-1.2 0.563-0.219 1.412-0.481 2.969-0.55 1.681-0.075 2.188-0.094 6.463-0.094zM16 0c-4.344 0-4.887 0.019-6.594 0.094-1.7 0.075-2.869 0.35-3.881 0.744-1.056 0.412-1.95 0.956-2.837 1.85-0.894 0.888-1.438 1.781-1.85 2.831-0.394 1.019-0.669 2.181-0.744 3.881-0.075 1.713-0.094 2.256-0.094 6.6s0.019 4.887 0.094 6.594c0.075 1.7 0.35 2.869 0.744 3.881 0.413 1.056 0.956 1.95 1.85 2.837 0.887 0.887 1.781 1.438 2.831 1.844 1.019 0.394 2.181 0.669 3.881 0.744 1.706 0.075 2.25 0.094 6.594 0.094s4.888-0.019 6.594-0.094c1.7-0.075 2.869-0.35 3.881-0.744 1.050-0.406 1.944-0.956 2.831-1.844s1.438-1.781 1.844-2.831c0.394-1.019 0.669-2.181 0.744-3.881 0.075-1.706 0.094-2.25 0.094-6.594s-0.019-4.887-0.094-6.594c-0.075-1.7-0.35-2.869-0.744-3.881-0.394-1.063-0.938-1.956-1.831-2.844-0.887-0.887-1.781-1.438-2.831-1.844-1.019-0.394-2.181-0.669-3.881-0.744-1.712-0.081-2.256-0.1-6.6-0.1v0z"></path>
<path d="M16 7.781c-4.537 0-8.219 3.681-8.219 8.219s3.681 8.219 8.219 8.219 8.219-3.681 8.219-8.219c0-4.537-3.681-8.219-8.219-8.219zM16 21.331c-2.944 0-5.331-2.387-5.331-5.331s2.387-5.331 5.331-5.331c2.944 0 5.331 2.387 5.331 5.331s-2.387 5.331-5.331 5.331z"></path>
<path d="M26.462 7.456c0 1.060-0.859 1.919-1.919 1.919s-1.919-0.859-1.919-1.919c0-1.060 0.859-1.919 1.919-1.919s1.919 0.859 1.919 1.919z"></path>
</symbol>
</defs>
</svg>
